<svg data-name="Layer 1" viewBox="0 0 16 16" xmlns="http://www.w3.org/2000/svg"><ellipse cx="6" cy="5.5" rx="1" ry="1.5" fill="#064053" class="fill-000000"></ellipse><ellipse cx="10" cy="5.5" rx="1" ry="1.5" fill="#064053" class="fill-000000"></ellipse><path d="M12.071 12h-1.142a2.929 2.929 0 0 0-5.858 0H3.929a4.071 4.071 0 0 1 8.142 0Z" fill="#064053" class="fill-000000"></path><path d="M8 1a7 7 0 1 1-7 7 7.008 7.008 0 0 1 7-7m0-1a8 8 0 1 0 8 8 8 8 0 0 0-8-8Z" fill="#064053" class="fill-000000"></path><path d="M12.838 7.429a1.057 1.057 0 0 1-.989-.5c-.536-.914.438-2.739.639-3.1a.418.418 0 0 1 .7 0c.2.358 1.175 2.183.64 3.1a1.058 1.058 0 0 1-.99.5Zm0-2.482c-.266.634-.448 1.315-.3 1.574.016.029.06.105.3.105s.279-.076.3-.105c.148-.259-.038-.94-.3-1.574Z" fill="#064053" class="fill-000000"></path></svg>